<svg viewBox="0 0 280 50" xmlns="http://www.w3.org/2000/svg" xmlns:xlink="http://www.w3.org/1999/xlink" width="280.000000" height="50.000000" fill="none" customFrame="#000000">
	<defs>
		<clipPath id="clipPath_2">
			<rect width="33.000031" height="25.000000" x="22.000000" y="12.000000" fill="rgb(255,255,255)" />
		</clipPath>
	</defs>
	<g id="discord_link">
		<rect id="discord_link" width="280.000000" height="50.000000" x="0.000000" y="0.000000" rx="14.000000" fill="rgb(239,140,31)" />
		<g id="discord-white 1" clip-path="url(#clipPath_2)" customFrame="url(#clipPath_2)">
			<rect id="discord-white 1" width="33.000031" height="25.000000" x="22.000000" y="12.000000" />
			<path id="Discord-Symbol-White" d="M43.1455 12C42.823 12.5722 42.5335 13.1642 42.2702 13.7693C39.7694 13.3944 37.2225 13.3944 34.715 13.7693C34.4584 13.1642 34.1622 12.5722 33.8397 12C31.4903 12.4012 29.2 13.105 27.0282 14.0981C22.7241 20.4715 21.5593 26.6803 22.1384 32.8037C24.659 34.6651 27.4823 36.0858 30.4899 36.9934C31.1678 36.0858 31.7667 35.1189 32.28 34.1126C31.306 33.7509 30.3649 33.297 29.4633 32.7709C29.7002 32.5998 29.9305 32.4223 30.1543 32.2513C35.439 34.7374 41.5595 34.7374 46.8507 32.2513C47.0745 32.4354 47.3048 32.613 47.5417 32.7709C46.6401 33.3036 45.699 33.7509 44.7184 34.1192C45.2318 35.1255 45.8306 36.0923 46.5085 37C49.516 36.0923 52.3393 34.6782 54.8601 32.8169C55.5444 25.7135 53.6886 19.5572 49.9569 14.1047C47.7918 13.1116 45.5016 12.4078 43.1521 12.0132L43.1455 12ZM33.0171 29.035C31.3916 29.035 30.0424 27.5617 30.0424 25.7398C30.0424 23.9179 31.3389 22.438 33.0105 22.438C34.6822 22.438 36.0115 23.9245 35.9852 25.7398C35.9589 27.5551 34.6756 29.035 33.0171 29.035ZM43.9813 29.035C42.3492 29.035 41.0132 27.5617 41.0132 25.7398C41.0132 23.9179 42.3097 22.438 43.9813 22.438C45.653 22.438 46.9758 23.9245 46.9494 25.7398C46.9231 27.5551 45.6398 29.035 43.9813 29.035Z" fill="rgb(255,255,255)" fill-rule="nonzero" />
		</g>
		<path id="" d="M76.25 33L73.75 33L73.75 18L68.75 18L68.75 33L66.25 33L66.25 15.5L76.25 15.5L76.25 33ZM81.25 25.5L81.25 33L78.75 33L78.75 15.5L86.25 15.5Q88.75 15.5 88.75 18L88.75 23Q88.75 25.5 86.25 25.5L81.25 25.5ZM81.25 23L86.25 23L86.25 18L81.25 18L81.25 23ZM93.75 26.8086L98.7402 15.5L101.25 15.5L101.25 33L98.75 33L98.75 21.6914L93.7598 33L91.25 33L91.25 15.5L93.75 15.5L93.75 26.8086ZM111.25 30.5L111.25 28L113.75 28L113.75 30.5Q113.75 33 111.25 33L106.25 33Q103.75 33 103.75 30.5L103.75 18Q103.75 15.5 106.25 15.5L111.25 15.5Q113.75 15.5 113.75 18L113.75 20.5L111.25 20.5L111.25 18L106.25 18L106.25 30.5L111.25 30.5ZM118.75 33Q116.25 33 116.25 30.5L116.25 18Q116.25 15.5 118.75 15.5L126.25 15.5Q128.75 15.5 128.75 18L128.75 30.5Q128.75 33 126.25 33L118.75 33ZM118.75 30.5L126.25 30.5L126.25 18L118.75 18L118.75 30.5ZM138.75 23L138.75 25.5L133.75 25.5L133.75 30.5L138.75 30.5L138.75 28L141.25 28L141.25 33L131.25 33L131.25 15.5L141.25 15.5L141.25 20.5L138.75 20.5L138.75 18L133.75 18L133.75 23L138.75 23ZM152.5 18L147.5 18L147.5 30.5L152.5 30.5L152.5 18ZM155 30.5L156.25 30.5L156.25 35.5L153.75 35.5L153.75 33L146.25 33L146.25 35.5L143.75 35.5L143.75 30.5L145 30.5L145 18Q145 15.5 147.5 15.5L155 15.5L155 30.5ZM161.25 26.8086L166.24 15.5L168.75 15.5L168.75 33L166.25 33L166.25 21.6914L161.26 33L158.75 33L158.75 15.5L161.25 15.5L161.25 26.8086ZM173.75 33L171.25 33L171.25 15.5L173.75 15.5L173.75 23L178.75 23L178.75 15.5L181.25 15.5L181.25 33L178.75 33L178.75 25.5L173.75 25.5L173.75 33ZM186.25 26.8086L191.24 15.5L193.75 15.5L193.75 33L191.25 33L191.25 21.6914L186.26 33L183.75 33L183.75 15.5L186.25 15.5L186.25 26.8086ZM203.75 33L201.25 33L201.25 18L198.75 18L198.75 20.5L196.25 20.5L196.25 15.5L208.75 15.5L208.75 20.5L206.25 20.5L206.25 18L203.75 18L203.75 33ZM211.25 33L211.25 15.5L213.75 15.5L213.75 23L218.75 23Q221.25 23 221.25 25.5L221.25 30.5Q221.25 33 218.75 33L211.25 33ZM213.75 30.5L218.75 30.5L218.75 25.5L213.75 25.5L213.75 30.5ZM231.25 30.5L231.25 28L233.75 28L233.75 30.5Q233.75 33 231.25 33L226.25 33Q223.75 33 223.75 30.5L223.75 18Q223.75 15.5 226.25 15.5L231.25 15.5Q233.75 15.5 233.75 18L233.75 20.5L231.25 20.5L231.25 18L226.25 18L226.25 30.5L231.25 30.5ZM243.75 18L238.75 18L238.75 23L243.75 23L243.75 18ZM246.25 33L243.75 33L243.75 25.5L242.568 25.5L239.023 33L236.25 33L239.805 25.5L238.75 25.5Q236.25 25.5 236.25 23L236.25 18Q236.25 15.5 238.75 15.5L246.25 15.5L246.25 33Z" fill="rgb(255,255,255)" fill-rule="nonzero" />
	</g>
</svg>
