<svg viewBox="0 0 342 64" xmlns="http://www.w3.org/2000/svg" xmlns:xlink="http://www.w3.org/1999/xlink" width="342.000000" height="64.000000" fill="none" customFrame="#000000">
	<defs>
		<clipPath id="clipPath_0">
			<rect width="341.999969" height="63.999992" x="0.000000" y="0.000000" rx="31.999996" fill="rgb(255,255,255)" />
		</clipPath>
		<clipPath id="clipPath_1">
			<rect width="174.516174" height="25.600002" x="151.000000" y="19.000000" fill="rgb(255,255,255)" />
		</clipPath>
	</defs>
	<g id="Login Discord">
		<g id="фрейм 1" customFrame="url(#clipPath_0)">
			<rect id="фрейм 1" width="341.999969" height="63.999992" x="0.000000" y="0.000000" rx="31.999996" fill="rgb(88,101,242)" />
			<path id="" d="M32.917 33.0107Q33.0332 33.3457 33.0332 33.8242L33.0332 38.7256Q33.0332 39.3955 32.7803 39.9971Q32.5273 40.5986 32.0762 41.0498Q31.6318 41.4941 31.0303 41.7471Q30.4287 42 29.7588 42L23.4834 42Q23.2305 42 23.2305 41.7471L23.2305 22.6543Q23.2305 22.4014 23.4834 22.4014L28.9453 22.4014Q29.417 22.4014 29.7588 22.5107Q30.8184 22.791 31.5156 23.6455Q32.2197 24.5 32.2197 25.6758L32.2197 28.9229Q32.2197 30.126 31.4609 31.0215Q31.9941 31.3291 32.3838 31.876Q32.7803 32.4229 32.917 33.0107ZM26.5049 25.6758L26.5049 30.5771L28.6924 30.5771Q28.9453 30.5771 28.9453 30.2969L28.9453 25.9287Q28.9453 25.6758 28.6924 25.6758L26.5049 25.6758ZM26.5049 38.7256L29.5059 38.7256Q29.7588 38.7256 29.7588 38.4727L29.7588 34.1045Q29.7588 33.8242 29.5059 33.8242L26.5049 33.8242L26.5049 38.7256ZM41.6308 22.4014Q42.3007 22.4014 42.9023 22.6543Q43.5038 22.9072 43.9482 23.3584Q44.3993 23.8027 44.6523 24.4043Q44.9052 25.0059 44.9052 25.6758L44.9052 38.7256Q44.9052 39.3955 44.6523 39.9971Q44.3993 40.5986 43.9482 41.0498Q43.5038 41.4941 42.9023 41.7471Q42.3007 42 41.6308 42L38.3769 42Q37.707 42 37.1054 41.7471Q36.5038 41.4941 36.0527 41.0498Q35.6083 40.5986 35.3554 39.9971Q35.1025 39.3955 35.1025 38.7256L35.1025 25.6758Q35.1025 25.0059 35.3554 24.4043Q35.6083 23.8027 36.0527 23.3584Q36.5038 22.9072 37.1054 22.6543Q37.707 22.4014 38.3769 22.4014L41.6308 22.4014ZM41.3779 38.7256Q41.6308 38.7256 41.6308 38.4727L41.6308 25.9287Q41.6308 25.6758 41.3779 25.6758L38.6298 25.6758Q38.3769 25.6758 38.3769 25.9287L38.3769 38.4727Q38.3769 38.7256 38.6298 38.7256L41.3779 38.7256ZM51.9878 21.5879Q51.0103 21.5879 50.2925 20.9727Q49.5816 20.3574 49.4107 19.4619Q49.3833 19.3184 49.4654 19.2363Q49.5542 19.1543 49.691 19.1543L51.1744 19.1543Q51.3453 19.1543 51.4273 19.291Q51.6255 19.626 51.9878 19.626Q52.4048 19.626 52.5484 19.291Q52.6304 19.1543 52.8013 19.1543L54.3121 19.1543Q54.4214 19.1543 54.5035 19.2363Q54.5923 19.3184 54.565 19.4619Q54.3941 20.3574 53.6763 20.9727Q52.9654 21.5879 51.9878 21.5879ZM56.6363 22.4014Q56.8892 22.4014 56.8892 22.6816L56.8892 41.7471Q56.8892 42 56.6363 42L53.8951 42Q53.6148 42 53.6148 41.7471L53.6148 31.7256L50.3609 38.2471L50.3609 41.7471Q50.3609 42 50.0806 42L47.3667 42Q47.0865 42 47.0865 41.7471L47.0865 22.6816Q47.0865 22.4014 47.3667 22.4014L50.0806 22.4014Q50.3609 22.4014 50.3609 22.6816L50.3609 32.7031L53.6148 26.1816L53.6148 22.6816Q53.6148 22.4014 53.8951 22.4014L56.6363 22.4014ZM68.5927 22.6543L67.8339 25.4775Q67.7792 25.6758 67.5809 25.6758L65.3182 25.6758L65.3182 41.7471Q65.3182 42 65.0653 42L62.3173 42Q62.0712 42 62.0712 41.7471L62.0712 25.6758L59.0429 25.6758Q58.7899 25.6758 58.7899 25.3955L58.7899 22.6543Q58.7899 22.4014 59.0429 22.4014L68.3397 22.4014Q68.5927 22.4014 68.5927 22.6543ZM79.9052 22.6543L79.9052 41.7471Q79.9052 42 79.6523 42L76.9111 42Q76.6308 42 76.6308 41.7471L76.6308 31.6982L73.3769 38.2471L73.3769 41.7471Q73.3769 42 73.0966 42L70.3554 42Q70.1025 42 70.1025 41.7471L70.1025 22.6543Q70.1025 22.4014 70.3554 22.4014L73.0966 22.4014Q73.3769 22.4014 73.3769 22.6543L73.3769 32.6758L76.6308 26.1543L76.6308 22.6543Q76.6308 22.4014 76.9111 22.4014L79.6523 22.4014Q79.9052 22.4014 79.9052 22.6543ZM96.4207 22.6543L96.4207 41.7471Q96.4207 42 96.1746 42L93.4266 42Q93.1463 42 93.1463 41.7471L93.1463 33.8242L89.8992 33.8242Q89.2293 33.8242 88.6277 33.5713Q88.0262 33.3184 87.575 32.874Q87.1307 32.4229 86.8777 31.835Q86.6248 31.2471 86.6248 30.5771L86.6248 22.6543Q86.6248 22.4014 86.8777 22.4014L89.619 22.4014Q89.8992 22.4014 89.8992 22.6543L89.8992 30.2969Q89.8992 30.5771 90.1522 30.5771L93.1463 30.5771L93.1463 22.6543Q93.1463 22.4014 93.4266 22.4014L96.1746 22.4014Q96.4207 22.4014 96.4207 22.6543ZM108.997 39.0059L108.997 41.7471Q108.997 42 108.716 42L99.4467 42Q99.1938 42 99.1938 41.7471L99.1938 22.6543Q99.1938 22.4014 99.4467 22.4014L108.716 22.4014Q108.997 22.4014 108.997 22.6543L108.21 25.4775Q108.156 25.6758 107.957 25.6758L102.441 25.6758L102.441 30.5771L106.283 30.5771Q106.529 30.5771 106.529 30.8301L106.529 33.5713Q106.529 33.8242 106.283 33.8242L102.441 33.8242L102.441 38.7256L108.716 38.7256Q108.997 38.7256 108.997 39.0059ZM117.567 22.4014Q118.237 22.4014 118.838 22.6543Q119.44 22.9072 119.884 23.3584Q120.335 23.8027 120.588 24.4043Q120.841 25.0059 120.841 25.6758L120.841 30.5771Q120.841 31.2471 120.575 31.8486Q120.308 32.4502 119.871 32.8877Q119.44 33.3184 118.838 33.5713Q118.237 33.8242 117.567 33.8242L114.313 33.8242L114.313 41.7471Q114.313 42 114.033 42L111.291 42Q111.038 42 111.038 41.7471L111.038 22.6543Q111.038 22.4014 111.291 22.4014L117.567 22.4014ZM117.314 30.5771Q117.567 30.5771 117.567 30.2969L117.567 25.9287Q117.567 25.6758 117.314 25.6758L114.313 25.6758L114.313 30.5771L117.314 30.5771ZM132.601 39.0059L132.601 41.7471Q132.601 42 132.32 42L123.051 42Q122.798 42 122.798 41.7471L122.798 22.6543Q122.798 22.4014 123.051 22.4014L132.32 22.4014Q132.601 22.4014 132.601 22.6543L131.814 25.4775Q131.76 25.6758 131.561 25.6758L126.045 25.6758L126.045 30.5771L129.887 30.5771Q130.133 30.5771 130.133 30.8301L130.133 33.5713Q130.133 33.8242 129.887 33.8242L126.045 33.8242L126.045 38.7256L132.32 38.7256Q132.601 38.7256 132.601 39.0059ZM143.211 32.1973Q143.574 32.5049 143.827 32.9287Q144.08 33.3457 144.189 33.8242Q144.305 34.1865 144.305 34.6377L144.305 38.7256Q144.305 39.3955 144.052 39.9971Q143.799 40.5986 143.348 41.0498Q142.904 41.4941 142.302 41.7471Q141.701 42 141.031 42L137.777 42Q137.107 42 136.505 41.7334Q135.904 41.4668 135.453 41.0361Q135.008 40.5986 134.755 39.9971Q134.502 39.3955 134.502 38.7256L134.502 37.3516Q134.502 37.0986 134.755 37.0986L137.497 37.0986Q137.777 37.0986 137.777 37.3516L137.777 38.4727Q137.777 38.7256 138.03 38.7256L140.778 38.7256Q141.031 38.7256 141.031 38.4727L141.031 34.1045Q141.031 33.8242 140.778 33.8242L137.223 33.8242Q136.97 33.8242 136.97 33.5713L136.97 30.8301Q136.97 30.5771 137.223 30.5771L140.778 30.5771Q141.031 30.5771 141.031 30.2969L141.031 25.9287Q141.031 25.6758 140.778 25.6758L138.03 25.6758Q137.777 25.6758 137.777 25.9287L137.777 27.1045Q137.777 27.3027 137.585 27.3574L134.837 28.0273Q134.701 28.082 134.598 28Q134.502 27.918 134.502 27.7744L134.502 25.6758Q134.502 25.0059 134.755 24.4043Q135.008 23.8027 135.453 23.3584Q135.904 22.9072 136.505 22.6543Q137.107 22.4014 137.777 22.4014L141.031 22.4014Q141.701 22.4014 142.302 22.6543Q142.904 22.9072 143.348 23.3584Q143.799 23.8027 144.052 24.4043Q144.305 25.0059 144.305 25.6758L144.305 29.7363Q144.305 30.4336 144.025 31.083Q143.745 31.7256 143.211 32.1973Z" fill="rgb(254,254,254)" fill-rule="nonzero" />
		</g>
		<g id="clip path group" customFrame="url(#clipPath_1)">
			<rect id="clip path group" width="174.516174" height="25.600002" x="151.000000" y="19.000000" />
			<g id="Сочетание 2">
				<path id="Форма 3" d="M173.292 19C172.952 19.5859 172.647 20.1921 172.369 20.8117C169.733 20.4278 167.048 20.4278 164.404 20.8117C164.134 20.1921 163.822 19.5859 163.481 19C161.005 19.4109 158.59 20.1315 156.301 21.1485C151.763 27.6747 150.535 34.0325 151.146 40.3029C153.803 42.2091 156.78 43.6637 159.95 44.5933C160.665 43.6637 161.296 42.6739 161.837 41.6432C160.811 41.2728 159.818 40.8083 158.868 40.2693C159.118 40.0941 159.36 39.9125 159.596 39.7373C165.168 42.2832 171.62 42.2832 177.198 39.7373C177.434 39.9259 177.677 40.1077 177.926 40.2693C176.976 40.8149 175.984 41.2728 174.95 41.6501C175.491 42.6805 176.123 43.6707 176.837 44.6C180.008 43.6707 182.984 42.2224 185.641 40.3165C186.363 33.0427 184.406 26.7387 180.472 21.1552C178.19 20.1382 175.776 19.4176 173.299 19.0135L173.292 19ZM162.614 36.4437C160.901 36.4437 159.478 34.9352 159.478 33.0696C159.478 31.204 160.845 29.6885 162.607 29.6885C164.37 29.6885 165.771 31.2107 165.743 33.0696C165.716 34.9285 164.363 36.4437 162.614 36.4437ZM174.173 36.4437C172.452 36.4437 171.044 34.9352 171.044 33.0696C171.044 31.204 172.411 29.6885 174.173 29.6885C175.935 29.6885 177.33 31.2107 177.302 33.0696C177.274 34.9285 175.921 36.4437 174.173 36.4437ZM197.38 22.5505L207.735 22.5505C210.231 22.5505 212.342 22.9285 214.069 23.6846C215.66 24.3336 217.01 25.4351 217.942 26.844C218.815 28.2357 219.262 29.8395 219.232 31.4685C219.251 33.1053 218.786 34.7128 217.893 36.1008C216.896 37.5669 215.471 38.7107 213.8 39.3853C211.969 40.1955 209.7 40.5992 206.992 40.5968L197.38 40.5968L197.38 22.5505ZM206.886 36.0051C208.567 36.0051 209.859 35.5976 210.762 34.7827C211.688 33.9109 212.122 32.7235 212.116 31.4429C212.121 30.2573 211.737 29.1517 210.91 28.3131C210.101 27.5325 208.883 27.1408 207.257 27.1384L204.018 27.1384L204.018 36.0051L206.886 36.0051ZM234.738 40.5672C233.372 40.2349 232.065 39.7048 230.861 38.9949L230.861 34.7163C231.912 35.4581 233.095 36.0051 234.351 36.3291C235.725 36.736 237.152 36.948 238.588 36.9587C239.084 36.9845 239.579 36.9013 240.037 36.7157C240.363 36.5536 240.526 36.3475 240.526 36.1339C240.533 35.8928 240.437 35.6595 240.261 35.4896C239.958 35.2635 239.602 35.1131 239.225 35.0515L236.039 34.3555C234.213 33.9432 232.917 33.3723 232.151 32.6432C231.373 31.8819 230.96 30.8387 231.013 29.7675C231 28.8075 231.36 27.8781 232.022 27.1643C232.806 26.3589 233.795 25.7683 234.89 25.4521C236.298 25.0224 237.768 24.8173 239.244 24.8445C240.622 24.832 241.995 24.9878 243.333 25.3085C244.413 25.557 245.451 25.9563 246.413 26.4941L246.413 30.5445C245.511 30.0363 244.54 29.6509 243.53 29.3995C242.435 29.1144 241.307 28.9707 240.173 28.9723C238.509 28.9723 237.677 29.2472 237.677 29.7971C237.672 30.0475 237.821 30.2765 238.057 30.3789C238.511 30.5664 238.988 30.7 239.475 30.7765L242.131 31.2405C243.855 31.5349 245.141 32.0504 245.988 32.7869C246.835 33.5235 247.26 34.6011 247.262 36.02C247.29 37.5381 246.486 38.9565 245.15 39.7461C243.752 40.6568 241.755 41.1109 239.16 41.1085C237.669 41.1109 236.182 40.9288 234.738 40.5672ZM253.536 40.0259C252.117 39.3928 250.92 38.3685 250.096 37.0803C249.327 35.8171 248.933 34.3717 248.958 32.9048C248.935 31.4384 249.35 29.9971 250.153 28.7549C251.008 27.4869 252.227 26.4888 253.658 25.8829C255.398 25.1468 257.283 24.7899 259.18 24.8371C261.835 24.8371 264.039 25.3784 265.791 26.4609L265.791 31.1851C265.125 30.7501 264.396 30.4115 263.63 30.18C262.771 29.9168 261.875 29.7864 260.974 29.7933C259.328 29.7933 258.04 30.0853 257.109 30.6696C255.801 31.3781 255.333 32.9819 256.063 34.2517C256.301 34.6653 256.649 35.0091 257.071 35.2464C257.974 35.8381 259.284 36.1339 261.001 36.1339C261.887 36.136 262.769 36.012 263.618 35.7656C264.393 35.5501 265.137 35.2421 265.833 34.8488L265.833 39.4147C263.781 40.5763 261.438 41.1651 259.063 41.116C257.159 41.1664 255.269 40.7936 253.536 40.0259ZM272.403 40.0259C270.968 39.3896 269.75 38.3675 268.894 37.0803C268.088 35.82 267.67 34.3624 267.688 32.8789C267.662 31.4131 268.082 29.9723 268.894 28.7365C269.754 27.4821 270.967 26.4931 272.387 25.8865C275.878 24.5118 279.784 24.5118 283.273 25.8865C284.69 26.4885 285.896 27.4725 286.751 28.7219C287.558 29.9621 287.973 31.4048 287.946 32.8715C287.965 34.3536 287.55 35.8101 286.751 37.0728C285.905 38.3611 284.693 39.384 283.262 40.0187C279.795 41.4621 275.87 41.4621 272.403 40.0187L272.403 40.0259ZM280.471 35.4528C281.133 34.7883 281.485 33.8877 281.441 32.9637C281.487 32.0477 281.136 31.1552 280.471 30.504C279.749 29.8621 278.793 29.5315 277.815 29.5872C276.84 29.5373 275.884 29.8672 275.161 30.504C274.499 31.1565 274.147 32.0485 274.194 32.9637C274.15 33.8869 274.499 34.7869 275.161 35.4528C275.878 36.1024 276.837 36.4413 277.815 36.3917C278.795 36.4472 279.757 36.1075 280.471 35.4528ZM303.903 25.7908L303.903 31.3656C303.112 30.9064 302.197 30.6824 301.277 30.7211C299.862 30.7211 298.769 31.1411 298.011 31.9731C297.252 32.8053 296.871 34.0976 296.871 35.8504L296.871 40.5931L290.366 40.5931L290.366 25.5146L296.739 25.5146L296.739 30.3013C297.093 28.5488 297.664 27.2563 298.453 26.4241C299.227 25.596 300.351 25.1609 301.488 25.1722C302.329 25.1705 303.178 25.3644 303.903 25.7908ZM325.516 22.035L325.516 40.5931L319.011 40.5931L319.011 37.2053C318.522 38.4115 317.641 39.4299 316.501 40.1069C315.242 40.8024 313.814 41.1488 312.366 41.1085C311.004 41.1392 309.666 40.7765 308.518 40.0664C307.405 39.3651 306.518 38.3733 305.96 37.2053C305.351 35.9163 305.048 34.5107 305.073 33.0925C305.029 31.6221 305.353 30.1632 306.013 28.8395C306.62 27.6272 307.567 26.6061 308.749 25.8939C309.96 25.1809 311.355 24.8146 312.773 24.8371C315.869 24.8371 317.948 26.1431 319.011 28.7549L319.011 22.035L325.516 22.035ZM318.055 35.3643C318.726 34.724 319.088 33.8392 319.052 32.9267C319.083 32.0413 318.72 31.1864 318.055 30.5776C316.523 29.3651 314.322 29.3651 312.787 30.5776C312.127 31.2003 311.77 32.0664 311.806 32.96C311.77 33.8619 312.133 34.7352 312.798 35.3645C313.504 35.9997 314.44 36.3328 315.402 36.2885C316.377 36.3411 317.336 36.0077 318.055 35.3643ZM224.717 21.4643C226.508 21.4643 227.96 22.7304 227.96 24.2922C227.96 25.854 226.508 27.12 224.717 27.12C222.925 27.12 221.473 25.854 221.473 24.2922C221.473 22.7304 222.925 21.4643 224.717 21.4643ZM221.47 29.068C223.545 29.9147 225.884 29.9147 227.96 29.068L227.96 40.6741L221.47 40.6741L221.47 29.068Z" fill="rgb(255,255,255)" fill-rule="evenodd" />
			</g>
		</g>
	</g>
</svg>
