<svg viewBox="0 0 2546 476" xmlns="http://www.w3.org/2000/svg" xmlns:xlink="http://www.w3.org/1999/xlink" width="2546.000000" height="476.000000" fill="none" customFrame="#000000">
	<defs>
		<g id="pixso_custom_effect_4">
			<effect x="0.000000" y="4.000000" visibility="visible" fill="rgb(0,0,0)" fill-opacity="0.25" effectType="dropShadow" stdDeviation="4" radius="0" />
		</g>
		<filter id="filter_4" width="2546.000000" height="476.000000" x="0.000000" y="0.000000" filterUnits="userSpaceOnUse" customEffect="url(#pixso_custom_effect_4)" color-interpolation-filters="sRGB">
			<feFlood flood-opacity="0" result="BackgroundImageFix" />
			<feColorMatrix result="hardAlpha" in="SourceAlpha" type="matrix" values="0 0 0 0 0 0 0 0 0 0 0 0 0 0 0 0 0 0 127 0 " />
			<feOffset dx="0.000000" dy="4.000000" in="hardAlpha" />
			<feGaussianBlur stdDeviation="1.33333337" />
			<feComposite k2="-1" k3="1" in2="hardAlpha" operator="out" />
			<feColorMatrix type="matrix" values="0 0 0 0 0 0 0 0 0 0 0 0 0 0 0 0 0 0 0.25 0 " />
			<feBlend result="effect_dropShadow_1" in2="BackgroundImageFix" mode="normal" />
			<feBlend result="shape" in="SourceGraphic" in2="effect_dropShadow_1" mode="normal" />
		</filter>
		<g id="pixso_custom_effect_5">
			<effect x="0.000000" y="0.000000" visibility="visible" fill="rgb(207,138,61)" fill-opacity="1" effectType="dropShadow" stdDeviation="59" radius="-6" />
		</g>
		<filter id="filter_5" width="2546.000000" height="476.000000" x="0.000000" y="0.000000" filterUnits="userSpaceOnUse" customEffect="url(#pixso_custom_effect_5)" color-interpolation-filters="sRGB">
			<feFlood flood-opacity="0" result="BackgroundImageFix" />
			<feOffset dx="-0.000000" dy="-0.000000" in="SourceAlpha" />
			<feMorphology radius="6" operator="erode" />
			<feOffset dx="0.000000" dy="0.000000" />
			<feGaussianBlur stdDeviation="19.666666" />
			<feColorMatrix type="matrix" values="0 0 0 0 0.811765 0 0 0 0 0.541176 0 0 0 0 0.239216 0 0 0 1 0 " />
			<feBlend result="effect_dropShadow_1" in2="BackgroundImageFix" mode="normal" />
			<feBlend result="shape" in="SourceGraphic" in2="effect_dropShadow_1" mode="normal" />
		</filter>
		<g id="pixso_custom_effect_6">
			<effect x="0.000000" y="4.000000" visibility="visible" fill="rgb(0,0,0)" fill-opacity="0.400000006" effectType="dropShadow" stdDeviation="4" radius="0" />
		</g>
		<filter id="filter_6" width="662.778015" height="79.670013" x="270.604004" y="160.095001" filterUnits="userSpaceOnUse" customEffect="url(#pixso_custom_effect_6)" color-interpolation-filters="sRGB">
			<feFlood flood-opacity="0" result="BackgroundImageFix" />
			<feColorMatrix result="hardAlpha" in="SourceAlpha" type="matrix" values="0 0 0 0 0 0 0 0 0 0 0 0 0 0 0 0 0 0 127 0 " />
			<feOffset dx="0.000000" dy="4.000000" in="hardAlpha" />
			<feGaussianBlur stdDeviation="1.33333337" />
			<feComposite k2="-1" k3="1" in2="hardAlpha" operator="out" />
			<feColorMatrix type="matrix" values="0 0 0 0 0 0 0 0 0 0 0 0 0 0 0 0 0 0 0.4 0 " />
			<feBlend result="effect_dropShadow_1" in2="BackgroundImageFix" mode="normal" />
			<feBlend result="shape" in="SourceGraphic" in2="effect_dropShadow_1" mode="normal" />
		</filter>
		<g id="pixso_custom_effect_7">
			<effect x="0.000000" y="4.000000" visibility="visible" fill="rgb(0,0,0)" fill-opacity="0.400000006" effectType="dropShadow" stdDeviation="4" radius="0" />
		</g>
		<filter id="filter_7" width="1053.836426" height="74.984985" x="72.603516" y="250.604004" filterUnits="userSpaceOnUse" customEffect="url(#pixso_custom_effect_7)" color-interpolation-filters="sRGB">
			<feFlood flood-opacity="0" result="BackgroundImageFix" />
			<feColorMatrix result="hardAlpha" in="SourceAlpha" type="matrix" values="0 0 0 0 0 0 0 0 0 0 0 0 0 0 0 0 0 0 127 0 " />
			<feOffset dx="0.000000" dy="4.000000" in="hardAlpha" />
			<feGaussianBlur stdDeviation="1.33333337" />
			<feComposite k2="-1" k3="1" in2="hardAlpha" operator="out" />
			<feColorMatrix type="matrix" values="0 0 0 0 0 0 0 0 0 0 0 0 0 0 0 0 0 0 0.4 0 " />
			<feBlend result="effect_dropShadow_1" in2="BackgroundImageFix" mode="normal" />
			<feBlend result="shape" in="SourceGraphic" in2="effect_dropShadow_1" mode="normal" />
		</filter>
	</defs>
	<rect id="scb_family_text 1" width="2546.000000" height="476.000000" x="0.000000" y="0.000000" />
	<g id="scb_family_text">
		<g id="Сочетание 5" filter="url(#filter_4)">
			<g id="Сочетание 6">
				<g filter="url(#filter_5)">
					<path id="Прямоугольник 7" d="M53 53L2493 53L2493 423L1273 423L53 423L53 53Z" fill="rgb(207,138,61)" fill-rule="evenodd" />
				</g>
			</g>
			<g id="Сочетание 7" filter="url(#filter_6)">
				<path id="ПРИСОЕДИНЯЙСЯ К НАМ" d="M303.312 170.345L303.312 226.259C303.312 226.753 303.065 227 302.571 227L294.543 227C293.996 227 293.722 226.753 293.722 226.259L293.722 179.193L284.193 179.193L284.193 226.259C284.193 226.753 283.919 227 283.372 227L275.344 227C274.851 227 274.604 226.753 274.604 226.259L274.604 170.345C274.604 169.851 274.851 169.604 275.344 169.604L302.571 169.604C303.065 169.604 303.312 169.851 303.312 170.345ZM329.638 169.604C330.946 169.604 332.187 169.851 333.362 170.345C334.537 170.838 335.558 171.526 336.425 172.407C337.306 173.274 337.993 174.295 338.487 175.47C338.981 176.644 339.228 177.885 339.228 179.193L339.228 193.547C339.228 194.855 338.968 196.096 338.447 197.271C337.926 198.446 337.239 199.46 336.385 200.314C335.544 201.155 334.537 201.822 333.362 202.316C332.187 202.81 330.946 203.057 329.638 203.057L320.109 203.057L320.109 226.259C320.109 226.753 319.835 227 319.288 227L311.26 227C310.767 227 310.52 226.753 310.52 226.259L310.52 170.345C310.52 169.851 310.767 169.604 311.26 169.604L329.638 169.604ZM328.897 193.547C329.391 193.547 329.638 193.274 329.638 192.727L329.638 179.934C329.638 179.44 329.391 179.193 328.897 179.193L320.109 179.193L320.109 193.547L328.897 193.547ZM373.996 170.345L373.996 226.259C373.996 226.753 373.749 227 373.255 227L365.227 227C364.68 227 364.406 226.753 364.406 226.259L364.406 196.831L354.877 216.009L354.877 226.259C354.877 226.753 354.603 227 354.056 227L346.028 227C345.535 227 345.288 226.753 345.288 226.259L345.288 170.345C345.288 169.851 345.535 169.604 346.028 169.604L354.056 169.604C354.603 169.604 354.877 169.851 354.877 170.345L354.877 199.693L364.406 180.595L364.406 170.345C364.406 169.851 364.68 169.604 365.227 169.604L373.255 169.604C373.749 169.604 373.996 169.851 373.996 170.345ZM401.552 183.377L401.552 179.934C401.552 179.44 401.305 179.193 400.811 179.193L392.764 179.193C392.27 179.193 392.023 179.44 392.023 179.934L392.023 216.67C392.023 217.164 392.27 217.411 392.764 217.411L400.811 217.411C401.305 217.411 401.552 217.164 401.552 216.67L401.552 211.004C401.552 210.511 401.826 210.264 402.373 210.264L410.401 210.264C410.895 210.264 411.142 210.511 411.142 211.004L411.142 217.411C411.142 218.719 410.895 219.96 410.401 221.134C409.907 222.309 409.22 223.336 408.339 224.217C407.472 225.085 406.451 225.766 405.276 226.259C404.101 226.753 402.86 227 401.552 227L392.023 227C390.715 227 389.474 226.753 388.299 226.259C387.125 225.766 386.097 225.085 385.216 224.217C384.349 223.336 383.668 222.309 383.174 221.134C382.681 219.96 382.434 218.719 382.434 217.411L382.434 179.193C382.434 177.885 382.681 176.644 383.174 175.47C383.668 174.295 384.349 173.274 385.216 172.407C386.097 171.526 387.125 170.838 388.299 170.345C389.474 169.851 390.715 169.604 392.023 169.604L401.552 169.604C402.86 169.604 404.101 169.851 405.276 170.345C406.451 170.838 407.472 171.526 408.339 172.407C409.22 173.274 409.907 174.295 410.401 175.47C410.895 176.644 411.142 177.885 411.142 179.193L411.142 185.6C411.142 186.08 410.895 186.32 410.401 186.32L402.113 184.118C401.739 184.011 401.552 183.764 401.552 183.377ZM436.648 169.604C437.956 169.604 439.197 169.851 440.372 170.345C441.547 170.838 442.568 171.526 443.435 172.407C444.316 173.274 445.003 174.295 445.497 175.47C445.991 176.644 446.238 177.885 446.238 179.193L446.238 217.411C446.238 218.719 445.991 219.96 445.497 221.134C445.003 222.309 444.316 223.336 443.435 224.217C442.568 225.085 441.547 225.766 440.372 226.259C439.197 226.753 437.956 227 436.648 227L427.119 227C425.811 227 424.57 226.753 423.395 226.259C422.221 225.766 421.193 225.085 420.312 224.217C419.445 223.336 418.764 222.309 418.27 221.134C417.777 219.96 417.53 218.719 417.53 217.411L417.53 179.193C417.53 177.885 417.777 176.644 418.27 175.47C418.764 174.295 419.445 173.274 420.312 172.407C421.193 171.526 422.221 170.838 423.395 170.345C424.57 169.851 425.811 169.604 427.119 169.604L436.648 169.604ZM435.907 217.411C436.401 217.411 436.648 217.164 436.648 216.67L436.648 179.934C436.648 179.44 436.401 179.193 435.907 179.193L427.86 179.193C427.366 179.193 427.119 179.44 427.119 179.934L427.119 216.67C427.119 217.164 427.366 217.411 427.86 217.411L435.907 217.411ZM483.464 218.231L483.464 226.259C483.464 226.753 483.19 227 482.643 227L455.496 227C455.003 227 454.756 226.753 454.756 226.259L454.756 170.345C454.756 169.851 455.003 169.604 455.496 169.604L482.643 169.604C483.19 169.604 483.464 169.851 483.464 170.345L481.161 178.613C481.054 179 480.808 179.193 480.421 179.193L464.265 179.193L464.265 193.547L475.516 193.547C475.997 193.547 476.237 193.794 476.237 194.288L476.237 202.316C476.237 202.81 475.997 203.057 475.516 203.057L464.265 203.057L464.265 217.411L482.643 217.411C483.19 217.411 483.464 217.684 483.464 218.231ZM521.584 216.67C521.705 217.164 521.978 217.411 522.405 217.411L525.929 217.411C526.543 217.411 526.79 217.711 526.669 218.312L524.547 231.104C524.44 231.545 524.194 231.765 523.807 231.765L518.061 231.765C517.514 231.765 517.24 231.518 517.24 231.024L517.24 227.741C517.24 227.247 516.993 227 516.5 227L498.962 227C498.415 227 498.142 227.247 498.142 227.741L498.142 231.024C498.142 231.518 497.895 231.765 497.401 231.765L491.655 231.765C491.228 231.765 490.955 231.545 490.834 231.104L488.712 218.312C488.712 217.711 488.986 217.411 489.533 217.411L493.057 217.411C493.497 217.411 493.77 217.191 493.877 216.75L498.142 170.345C498.142 169.851 498.389 169.604 498.882 169.604L521.344 169.604C521.838 169.604 522.085 169.851 522.085 170.345L521.584 216.67ZM503.307 217.411L512.075 217.411L512.896 179.193L507.331 179.193L503.307 217.411ZM561.94 170.345L561.94 226.259C561.94 226.753 561.693 227 561.199 227L553.171 227C552.624 227 552.35 226.753 552.35 226.259L552.35 196.831L542.821 216.009L542.821 226.259C542.821 226.753 542.547 227 542 227L533.972 227C533.479 227 533.232 226.753 533.232 226.259L533.232 170.345C533.232 169.851 533.479 169.604 533.972 169.604L542 169.604C542.547 169.604 542.821 169.851 542.821 170.345L542.821 199.693L552.35 180.595L552.35 170.345C552.35 169.851 552.624 169.604 553.171 169.604L561.199 169.604C561.693 169.604 561.94 169.851 561.94 170.345ZM599.495 170.345L599.495 226.259C599.495 226.753 599.248 227 598.755 227L590.727 227C590.18 227 589.906 226.753 589.906 226.259L589.906 203.057L580.377 203.057L580.377 226.259C580.377 226.753 580.103 227 579.556 227L571.528 227C571.034 227 570.787 226.753 570.787 226.259L570.787 170.345C570.787 169.851 571.034 169.604 571.528 169.604L579.556 169.604C580.103 169.604 580.377 169.851 580.377 170.345L580.377 193.547L589.906 193.547L589.906 170.345C589.906 169.851 590.18 169.604 590.727 169.604L598.755 169.604C599.248 169.604 599.495 169.851 599.495 170.345ZM636.311 169.604C636.805 169.604 637.052 169.851 637.052 170.345L637.052 226.259C637.052 226.753 636.805 227 636.311 227L628.283 227C627.736 227 627.462 226.753 627.462 226.259L627.462 203.057L625.08 203.057L618.113 226.419C617.993 226.806 617.746 227 617.372 227L609.405 227C609.138 227 608.917 226.907 608.744 226.72C608.584 226.519 608.564 226.286 608.684 226.019L615.651 202.816C614.61 202.536 613.762 202.176 613.108 201.735C611.68 200.921 610.526 199.767 609.645 198.272C608.778 196.764 608.344 195.189 608.344 193.547L608.344 179.193C608.344 177.885 608.591 176.644 609.084 175.47C609.578 174.295 610.259 173.274 611.126 172.407C612.007 171.526 613.035 170.838 614.209 170.345C615.384 169.851 616.625 169.604 617.933 169.604L636.311 169.604ZM627.462 193.547L627.462 179.193L618.674 179.193C618.18 179.193 617.933 179.44 617.933 179.934L617.933 192.727C617.933 193.274 618.18 193.547 618.674 193.547L627.462 193.547ZM660.254 167.222C658.345 167.222 656.69 166.621 655.289 165.42C653.901 164.219 653.04 162.744 652.706 160.996C652.653 160.715 652.706 160.495 652.866 160.335C653.04 160.175 653.26 160.095 653.527 160.095L657.871 160.095C658.205 160.095 658.452 160.228 658.612 160.495C658.999 161.149 659.547 161.476 660.254 161.476C661.068 161.476 661.615 161.149 661.895 160.495C662.055 160.228 662.302 160.095 662.636 160.095L667.06 160.095C667.273 160.095 667.46 160.175 667.621 160.335C667.794 160.495 667.854 160.715 667.801 160.996C667.467 162.744 666.599 164.219 665.198 165.42C663.81 166.621 662.162 167.222 660.254 167.222ZM673.867 169.604C674.361 169.604 674.608 169.878 674.608 170.425L674.608 226.259C674.608 226.753 674.361 227 673.867 227L665.839 227C665.292 227 665.018 226.753 665.018 226.259L665.018 196.911L655.489 216.009L655.489 226.259C655.489 226.753 655.215 227 654.668 227L646.72 227C646.173 227 645.9 226.753 645.9 226.259L645.9 170.425C645.9 169.878 646.173 169.604 646.72 169.604L654.668 169.604C655.215 169.604 655.489 169.878 655.489 170.425L655.489 199.773L665.018 180.675L665.018 170.425C665.018 169.878 665.292 169.604 665.839 169.604L673.867 169.604ZM700.934 183.377L700.934 179.934C700.934 179.44 700.687 179.193 700.193 179.193L692.146 179.193C691.652 179.193 691.405 179.44 691.405 179.934L691.405 216.67C691.405 217.164 691.652 217.411 692.146 217.411L700.193 217.411C700.687 217.411 700.934 217.164 700.934 216.67L700.934 211.004C700.934 210.511 701.208 210.264 701.755 210.264L709.783 210.264C710.276 210.264 710.523 210.511 710.523 211.004L710.523 217.411C710.523 218.719 710.276 219.96 709.783 221.134C709.289 222.309 708.602 223.336 707.721 224.217C706.853 225.085 705.832 225.766 704.658 226.259C703.483 226.753 702.242 227 700.934 227L691.405 227C690.097 227 688.856 226.753 687.681 226.259C686.506 225.766 685.479 225.085 684.598 224.217C683.731 223.336 683.05 222.309 682.556 221.134C682.062 219.96 681.815 218.719 681.815 217.411L681.815 179.193C681.815 177.885 682.062 176.644 682.556 175.47C683.05 174.295 683.731 173.274 684.598 172.407C685.479 171.526 686.506 170.838 687.681 170.345C688.856 169.851 690.097 169.604 691.405 169.604L700.934 169.604C702.242 169.604 703.483 169.851 704.658 170.345C705.832 170.838 706.853 171.526 707.721 172.407C708.602 173.274 709.289 174.295 709.783 175.47C710.276 176.644 710.523 177.885 710.523 179.193L710.523 185.6C710.523 186.08 710.276 186.32 709.783 186.32L701.495 184.118C701.121 184.011 700.934 183.764 700.934 183.377ZM743.649 169.604C744.143 169.604 744.39 169.851 744.39 170.345L744.39 226.259C744.39 226.753 744.143 227 743.649 227L735.621 227C735.074 227 734.8 226.753 734.8 226.259L734.8 203.057L732.418 203.057L725.451 226.419C725.331 226.806 725.084 227 724.71 227L716.743 227C716.476 227 716.255 226.907 716.082 226.72C715.922 226.519 715.902 226.286 716.022 226.019L722.989 202.816C721.948 202.536 721.1 202.176 720.446 201.735C719.018 200.921 717.864 199.767 716.983 198.272C716.116 196.764 715.682 195.189 715.682 193.547L715.682 179.193C715.682 177.885 715.929 176.644 716.422 175.47C716.916 174.295 717.597 173.274 718.464 172.407C719.345 171.526 720.373 170.838 721.547 170.345C722.722 169.851 723.963 169.604 725.271 169.604L743.649 169.604ZM734.8 193.547L734.8 179.193L726.012 179.193C725.518 179.193 725.271 179.44 725.271 179.934L725.271 192.727C725.271 193.274 725.518 193.547 726.012 193.547L734.8 193.547ZM792.516 226.019C792.569 226.286 792.529 226.519 792.396 226.72C792.263 226.907 792.056 227 791.775 227L783.748 227C783.467 227 783.22 226.806 783.007 226.419L776.04 203.057L773.658 203.057L773.658 226.259C773.658 226.753 773.384 227 772.837 227L764.809 227C764.315 227 764.068 226.753 764.068 226.259L764.068 170.345C764.068 169.851 764.315 169.604 764.809 169.604L772.837 169.604C773.384 169.604 773.658 169.851 773.658 170.345L773.658 193.547L776.04 193.547L783.007 170.165C783.22 169.791 783.467 169.604 783.748 169.604L791.775 169.604C792.056 169.604 792.263 169.697 792.396 169.884C792.529 170.071 792.569 170.305 792.516 170.585L784.148 198.292L792.516 226.019ZM842.051 170.345L842.051 226.259C842.051 226.753 841.804 227 841.311 227L833.283 227C832.736 227 832.462 226.753 832.462 226.259L832.462 203.057L822.933 203.057L822.933 226.259C822.933 226.753 822.659 227 822.112 227L814.084 227C813.59 227 813.343 226.753 813.343 226.259L813.343 170.345C813.343 169.851 813.59 169.604 814.084 169.604L822.112 169.604C822.659 169.604 822.933 169.851 822.933 170.345L822.933 193.547L832.462 193.547L832.462 170.345C832.462 169.851 832.736 169.604 833.283 169.604L841.311 169.604C841.804 169.604 842.051 169.851 842.051 170.345ZM868.127 227C868.02 227 867.907 226.973 867.787 226.92C867.574 226.813 867.467 226.62 867.467 226.339L867.467 217.571L858.698 217.571L858.038 226.339C858.038 226.673 858.011 226.867 857.958 226.92C857.904 226.973 857.684 227 857.297 227L849.269 227C849.096 227 848.982 226.973 848.929 226.92C848.662 226.813 848.528 226.62 848.528 226.339L851.231 170.985C851.231 170.665 851.258 170.358 851.311 170.064C851.364 169.757 851.558 169.604 851.892 169.604L874.193 169.604C874.527 169.604 874.721 169.757 874.774 170.064C874.827 170.358 874.854 170.665 874.854 170.985L877.557 226.339C877.557 226.673 877.417 226.867 877.136 226.92C876.869 226.973 876.569 227 876.235 227L868.127 227ZM865.425 179.774L860 179.774L858.698 208.142L866.806 208.142L865.425 179.774ZM929.382 226.179C929.382 226.726 929.135 227 928.641 227L920.614 227C920.173 227 919.9 226.753 919.793 226.259L917.49 195.93L910.444 226.419C910.323 226.806 910.076 227 909.703 227L901.335 227C900.948 227 900.701 226.806 900.594 226.419L893.547 195.93L891.245 226.259C891.138 226.753 890.865 227 890.424 227L882.476 227C881.929 227 881.656 226.726 881.656 226.179L886.32 170.345C886.32 169.851 886.567 169.604 887.061 169.604L895.349 169.604C895.736 169.604 895.983 169.791 896.09 170.165L905.519 210.264L914.948 170.165C915.055 169.791 915.302 169.604 915.689 169.604L923.957 169.604C924.451 169.604 924.698 169.851 924.698 170.345L929.382 226.179Z" fill="rgb(255,255,255)" fill-rule="nonzero" />
			</g>
			<g id="Сочетание 8" filter="url(#filter_7)">
				<path id="СТАНЬ ЧАСТЬЮ НАШЕГО СООБЩЕСТВА!" d="M95.7222 264.377L95.7222 260.934C95.7222 260.44 95.4753 260.193 94.9814 260.193L86.9336 260.193C86.4398 260.193 86.1929 260.44 86.1929 260.934L86.1929 297.67C86.1929 298.164 86.4398 298.411 86.9336 298.411L94.9814 298.411C95.4753 298.411 95.7222 298.164 95.7222 297.67L95.7222 292.004C95.7222 291.511 95.9958 291.264 96.543 291.264L104.571 291.264C105.065 291.264 105.312 291.511 105.312 292.004L105.312 298.411C105.312 299.719 105.065 300.96 104.571 302.134C104.077 303.309 103.39 304.336 102.509 305.217C101.642 306.085 100.621 306.766 99.4458 307.259C98.2713 307.753 97.0301 308 95.7222 308L86.1929 308C84.885 308 83.6438 307.753 82.4692 307.259C81.2947 306.766 80.2671 306.085 79.3862 305.217C78.5187 304.336 77.8381 303.309 77.3442 302.134C76.8504 300.96 76.6035 299.719 76.6035 298.411L76.6035 260.193C76.6035 258.885 76.8504 257.644 77.3442 256.47C77.8381 255.295 78.5187 254.274 79.3862 253.407C80.2671 252.526 81.2947 251.838 82.4692 251.345C83.6438 250.851 84.885 250.604 86.1929 250.604L95.7222 250.604C97.0301 250.604 98.2713 250.851 99.4458 251.345C100.621 251.838 101.642 252.526 102.509 253.407C103.39 254.274 104.077 255.295 104.571 256.47C105.065 257.644 105.312 258.885 105.312 260.193L105.312 266.6C105.312 267.08 105.065 267.32 104.571 267.32L96.2827 265.118C95.909 265.011 95.7222 264.764 95.7222 264.377ZM137.126 251.345L134.904 259.613C134.797 260 134.55 260.193 134.163 260.193L127.537 260.193L127.537 307.259C127.537 307.753 127.29 308 126.796 308L118.748 308C118.267 308 118.027 307.753 118.027 307.259L118.027 260.193L109.159 260.193C108.665 260.193 108.418 259.92 108.418 259.373L108.418 251.345C108.418 250.851 108.665 250.604 109.159 250.604L136.385 250.604C136.879 250.604 137.126 250.851 137.126 251.345ZM158.366 308C158.259 308 158.145 307.973 158.025 307.92C157.812 307.813 157.705 307.62 157.705 307.339L157.705 298.571L148.936 298.571L148.276 307.339C148.276 307.673 148.249 307.867 148.196 307.92C148.143 307.973 147.922 308 147.535 308L139.507 308C139.334 308 139.22 307.973 139.167 307.92C138.9 307.813 138.766 307.62 138.766 307.339L141.469 251.985C141.469 251.665 141.496 251.358 141.549 251.064C141.602 250.757 141.796 250.604 142.13 250.604L164.431 250.604C164.765 250.604 164.959 250.757 165.012 251.064C165.065 251.358 165.092 251.665 165.092 251.985L167.795 307.339C167.795 307.673 167.655 307.867 167.374 307.92C167.107 307.973 166.807 308 166.473 308L158.366 308ZM155.663 260.774L150.238 260.774L148.936 289.142L157.044 289.142L155.663 260.774ZM203.384 251.345L203.384 307.259C203.384 307.753 203.137 308 202.643 308L194.615 308C194.068 308 193.794 307.753 193.794 307.259L193.794 284.057L184.265 284.057L184.265 307.259C184.265 307.753 183.991 308 183.444 308L175.416 308C174.923 308 174.676 307.753 174.676 307.259L174.676 251.345C174.676 250.851 174.923 250.604 175.416 250.604L183.444 250.604C183.991 250.604 184.265 250.851 184.265 251.345L184.265 274.547L193.794 274.547L193.794 251.345C193.794 250.851 194.068 250.604 194.615 250.604L202.643 250.604C203.137 250.604 203.384 250.851 203.384 251.345ZM240.12 298.411C240.12 299.719 239.873 300.96 239.379 302.134C238.885 303.309 238.198 304.336 237.317 305.217C236.45 306.085 235.429 306.766 234.254 307.259C233.079 307.753 231.838 308 230.53 308L212.152 308C211.659 308 211.412 307.753 211.412 307.259L211.412 251.345C211.412 250.851 211.659 250.604 212.152 250.604L220.18 250.604C220.727 250.604 221.001 250.851 221.001 251.345L221.001 274.547L230.53 274.547C231.838 274.547 233.079 274.794 234.254 275.288C235.429 275.782 236.45 276.469 237.317 277.35C238.198 278.217 238.885 279.225 239.379 280.373C239.873 281.521 240.12 282.749 240.12 284.057L240.12 298.411ZM230.53 284.877C230.53 284.33 230.283 284.057 229.789 284.057L221.001 284.057L221.001 298.411L229.789 298.411C230.283 298.411 230.53 298.164 230.53 297.67L230.53 284.877ZM287.338 251.345L287.338 307.259C287.338 307.753 287.098 308 286.618 308L278.57 308C278.023 308 277.749 307.753 277.749 307.259L277.749 284.057L268.24 284.057C266.932 284.057 265.691 283.81 264.516 283.316C263.341 282.822 262.314 282.141 261.433 281.274C260.566 280.393 259.885 279.379 259.391 278.231C258.897 277.083 258.65 275.855 258.65 274.547L258.65 251.345C258.65 250.851 258.897 250.604 259.391 250.604L267.419 250.604C267.966 250.604 268.24 250.851 268.24 251.345L268.24 273.727C268.24 274.274 268.487 274.547 268.98 274.547L277.749 274.547L277.749 251.345C277.749 250.851 278.023 250.604 278.57 250.604L286.618 250.604C287.098 250.604 287.338 250.851 287.338 251.345ZM313.339 308C313.232 308 313.125 307.973 313.018 307.92C312.791 307.813 312.678 307.62 312.678 307.339L312.678 298.571L303.909 298.571L303.249 307.339C303.249 307.673 303.222 307.867 303.169 307.92C303.116 307.973 302.895 308 302.508 308L294.48 308C294.32 308 294.213 307.973 294.16 307.92C293.88 307.813 293.74 307.62 293.74 307.339L296.442 251.985C296.442 251.665 296.469 251.358 296.522 251.064C296.589 250.757 296.782 250.604 297.103 250.604L319.405 250.604C319.738 250.604 319.932 250.757 319.985 251.064C320.038 251.358 320.065 251.665 320.065 251.985L322.768 307.339C322.768 307.673 322.628 307.867 322.347 307.92C322.08 307.973 321.787 308 321.467 308L313.339 308ZM310.636 260.774L305.231 260.774L303.909 289.142L312.037 289.142L310.636 260.774ZM348.692 264.377L348.692 260.934C348.692 260.44 348.445 260.193 347.951 260.193L339.904 260.193C339.41 260.193 339.163 260.44 339.163 260.934L339.163 297.67C339.163 298.164 339.41 298.411 339.904 298.411L347.951 298.411C348.445 298.411 348.692 298.164 348.692 297.67L348.692 292.004C348.692 291.511 348.966 291.264 349.513 291.264L357.541 291.264C358.035 291.264 358.282 291.511 358.282 292.004L358.282 298.411C358.282 299.719 358.035 300.96 357.541 302.134C357.047 303.309 356.36 304.336 355.479 305.217C354.612 306.085 353.591 306.766 352.416 307.259C351.241 307.753 350 308 348.692 308L339.163 308C337.855 308 336.614 307.753 335.439 307.259C334.265 306.766 333.237 306.085 332.356 305.217C331.489 304.336 330.808 303.309 330.314 302.134C329.821 300.96 329.574 299.719 329.574 298.411L329.574 260.193C329.574 258.885 329.821 257.644 330.314 256.47C330.808 255.295 331.489 254.274 332.356 253.407C333.237 252.526 334.265 251.838 335.439 251.345C336.614 250.851 337.855 250.604 339.163 250.604L348.692 250.604C350 250.604 351.241 250.851 352.416 251.345C353.591 251.838 354.612 252.526 355.479 253.407C356.36 254.274 357.047 255.295 357.541 256.47C358.035 257.644 358.282 258.885 358.282 260.193L358.282 266.6C358.282 267.08 358.035 267.32 357.541 267.32L349.253 265.118C348.879 265.011 348.692 264.764 348.692 264.377ZM390.506 251.345L388.284 259.613C388.177 260 387.93 260.193 387.543 260.193L380.917 260.193L380.917 307.259C380.917 307.753 380.67 308 380.176 308L372.128 308C371.647 308 371.407 307.753 371.407 307.259L371.407 260.193L362.539 260.193C362.045 260.193 361.798 259.92 361.798 259.373L361.798 251.345C361.798 250.851 362.045 250.604 362.539 250.604L389.765 250.604C390.259 250.604 390.506 250.851 390.506 251.345ZM423.636 298.411C423.636 299.719 423.389 300.96 422.895 302.134C422.401 303.309 421.714 304.336 420.833 305.217C419.966 306.085 418.945 306.766 417.77 307.259C416.595 307.753 415.354 308 414.046 308L395.668 308C395.175 308 394.928 307.753 394.928 307.259L394.928 251.345C394.928 250.851 395.175 250.604 395.668 250.604L403.696 250.604C404.243 250.604 404.517 250.851 404.517 251.345L404.517 274.547L414.046 274.547C415.354 274.547 416.595 274.794 417.77 275.288C418.945 275.782 419.966 276.469 420.833 277.35C421.714 278.217 422.401 279.225 422.895 280.373C423.389 281.521 423.636 282.749 423.636 284.057L423.636 298.411ZM414.046 284.877C414.046 284.33 413.799 284.057 413.305 284.057L404.517 284.057L404.517 298.411L413.305 298.411C413.799 298.411 414.046 298.164 414.046 297.67L414.046 284.877ZM463.968 250.604C465.289 250.604 466.537 250.851 467.712 251.345C468.887 251.838 469.908 252.526 470.775 253.407C471.656 254.274 472.343 255.295 472.837 256.47C473.331 257.644 473.578 258.885 473.578 260.193L473.578 298.411C473.578 299.719 473.331 300.96 472.837 302.134C472.343 303.309 471.656 304.336 470.775 305.217C469.908 306.085 468.887 306.766 467.712 307.259C466.537 307.753 465.289 308 463.968 308L454.459 308C453.151 308 451.91 307.753 450.735 307.259C449.561 306.766 448.533 306.085 447.652 305.217C446.785 304.336 446.104 303.309 445.61 302.134C445.117 300.96 444.87 299.719 444.87 298.411L444.87 284.057L440.105 284.057L440.105 308L430.516 308L430.516 250.604L440.105 250.604L440.105 274.547L444.87 274.547L444.87 260.193C444.87 258.885 445.117 257.644 445.61 256.47C446.104 255.295 446.785 254.274 447.652 253.407C448.533 252.526 449.561 251.838 450.735 251.345C451.91 250.851 453.151 250.604 454.459 250.604L463.968 250.604ZM463.968 260.934C463.968 260.44 463.728 260.193 463.247 260.193L455.2 260.193C454.706 260.193 454.459 260.44 454.459 260.934L454.459 297.67C454.459 298.164 454.706 298.411 455.2 298.411L463.247 298.411C463.728 298.411 463.968 298.164 463.968 297.67L463.968 260.934ZM523.102 251.345L523.102 307.259C523.102 307.753 522.855 308 522.361 308L514.333 308C513.786 308 513.512 307.753 513.512 307.259L513.512 284.057L503.983 284.057L503.983 307.259C503.983 307.753 503.709 308 503.162 308L495.134 308C494.641 308 494.394 307.753 494.394 307.259L494.394 251.345C494.394 250.851 494.641 250.604 495.134 250.604L503.162 250.604C503.709 250.604 503.983 250.851 503.983 251.345L503.983 274.547L513.512 274.547L513.512 251.345C513.512 250.851 513.786 250.604 514.333 250.604L522.361 250.604C522.855 250.604 523.102 250.851 523.102 251.345ZM549.909 308C549.802 308 549.695 307.973 549.588 307.92C549.361 307.813 549.248 307.62 549.248 307.339L549.248 298.571L540.479 298.571L539.819 307.339C539.819 307.673 539.792 307.867 539.739 307.92C539.686 307.973 539.465 308 539.078 308L531.05 308C530.89 308 530.783 307.973 530.73 307.92C530.45 307.813 530.31 307.62 530.31 307.339L533.012 251.985C533.012 251.665 533.039 251.358 533.092 251.064C533.159 250.757 533.352 250.604 533.673 250.604L555.975 250.604C556.308 250.604 556.502 250.757 556.555 251.064C556.608 251.358 556.635 251.665 556.635 251.985L559.338 307.339C559.338 307.673 559.198 307.867 558.917 307.92C558.65 307.973 558.357 308 558.037 308L549.909 308ZM547.206 260.774L541.801 260.774L540.479 289.142L548.607 289.142L547.206 260.774ZM614.36 251.345L614.36 307.259C614.36 307.753 614.113 308 613.62 308L567.294 308C566.801 308 566.554 307.753 566.554 307.259L566.554 251.345C566.554 250.851 566.801 250.604 567.294 250.604L575.322 250.604C575.869 250.604 576.143 250.851 576.143 251.345L576.143 298.411L585.672 298.411L585.672 251.345C585.672 250.851 585.946 250.604 586.493 250.604L594.521 250.604C595.015 250.604 595.262 250.851 595.262 251.345L595.262 298.411L604.851 298.411L604.851 251.345C604.851 250.851 605.098 250.604 605.592 250.604L613.62 250.604C614.113 250.604 614.36 250.851 614.36 251.345ZM652.086 299.231L652.086 307.259C652.086 307.753 651.812 308 651.265 308L624.118 308C623.625 308 623.378 307.753 623.378 307.259L623.378 251.345C623.378 250.851 623.625 250.604 624.118 250.604L651.265 250.604C651.812 250.604 652.086 250.851 652.086 251.345L649.783 259.613C649.676 260 649.43 260.193 649.043 260.193L632.887 260.193L632.887 274.547L644.138 274.547C644.619 274.547 644.859 274.794 644.859 275.288L644.859 283.316C644.859 283.81 644.619 284.057 644.138 284.057L632.887 284.057L632.887 298.411L651.265 298.411C651.812 298.411 652.086 298.684 652.086 299.231ZM686.201 251.585L684.219 259.613C684.059 260 683.785 260.193 683.398 260.193L669.705 260.193L669.705 307.259C669.705 307.753 669.431 308 668.884 308L660.856 308C660.363 308 660.116 307.753 660.116 307.259L660.116 251.345C660.116 250.851 660.363 250.604 660.856 250.604L685.46 250.604C685.727 250.604 685.928 250.697 686.061 250.884C686.208 251.071 686.254 251.305 686.201 251.585ZM707.77 250.604C709.078 250.604 710.319 250.851 711.494 251.345C712.669 251.838 713.69 252.526 714.557 253.407C715.438 254.274 716.125 255.295 716.619 256.47C717.113 257.644 717.36 258.885 717.36 260.193L717.36 298.411C717.36 299.719 717.113 300.96 716.619 302.134C716.125 303.309 715.438 304.336 714.557 305.217C713.69 306.085 712.669 306.766 711.494 307.259C710.319 307.753 709.078 308 707.77 308L698.241 308C696.933 308 695.692 307.753 694.517 307.259C693.343 306.766 692.315 306.085 691.434 305.217C690.567 304.336 689.886 303.309 689.392 302.134C688.899 300.96 688.652 299.719 688.652 298.411L688.652 260.193C688.652 258.885 688.899 257.644 689.392 256.47C689.886 255.295 690.567 254.274 691.434 253.407C692.315 252.526 693.343 251.838 694.517 251.345C695.692 250.851 696.933 250.604 698.241 250.604L707.77 250.604ZM707.029 298.411C707.523 298.411 707.77 298.164 707.77 297.67L707.77 260.934C707.77 260.44 707.523 260.193 707.029 260.193L698.982 260.193C698.488 260.193 698.241 260.44 698.241 260.934L698.241 297.67C698.241 298.164 698.488 298.411 698.982 298.411L707.029 298.411ZM757.298 264.377L757.298 260.934C757.298 260.44 757.051 260.193 756.557 260.193L748.51 260.193C748.016 260.193 747.769 260.44 747.769 260.934L747.769 297.67C747.769 298.164 748.016 298.411 748.51 298.411L756.557 298.411C757.051 298.411 757.298 298.164 757.298 297.67L757.298 292.004C757.298 291.511 757.572 291.264 758.119 291.264L766.147 291.264C766.641 291.264 766.888 291.511 766.888 292.004L766.888 298.411C766.888 299.719 766.641 300.96 766.147 302.134C765.653 303.309 764.966 304.336 764.085 305.217C763.218 306.085 762.197 306.766 761.022 307.259C759.847 307.753 758.606 308 757.298 308L747.769 308C746.461 308 745.22 307.753 744.045 307.259C742.871 306.766 741.843 306.085 740.962 305.217C740.095 304.336 739.414 303.309 738.92 302.134C738.427 300.96 738.18 299.719 738.18 298.411L738.18 260.193C738.18 258.885 738.427 257.644 738.92 256.47C739.414 255.295 740.095 254.274 740.962 253.407C741.843 252.526 742.871 251.838 744.045 251.345C745.22 250.851 746.461 250.604 747.769 250.604L757.298 250.604C758.606 250.604 759.847 250.851 761.022 251.345C762.197 251.838 763.218 252.526 764.085 253.407C764.966 254.274 765.653 255.295 766.147 256.47C766.641 257.644 766.888 258.885 766.888 260.193L766.888 266.6C766.888 267.08 766.641 267.32 766.147 267.32L757.859 265.118C757.485 265.011 757.298 264.764 757.298 264.377ZM791.984 250.604C793.292 250.604 794.533 250.851 795.708 251.345C796.883 251.838 797.904 252.526 798.771 253.407C799.652 254.274 800.339 255.295 800.833 256.47C801.327 257.644 801.574 258.885 801.574 260.193L801.574 298.411C801.574 299.719 801.327 300.96 800.833 302.134C800.339 303.309 799.652 304.336 798.771 305.217C797.904 306.085 796.883 306.766 795.708 307.259C794.533 307.753 793.292 308 791.984 308L782.455 308C781.147 308 779.906 307.753 778.731 307.259C777.557 306.766 776.529 306.085 775.648 305.217C774.781 304.336 774.1 303.309 773.606 302.134C773.113 300.96 772.866 299.719 772.866 298.411L772.866 260.193C772.866 258.885 773.113 257.644 773.606 256.47C774.1 255.295 774.781 254.274 775.648 253.407C776.529 252.526 777.557 251.838 778.731 251.345C779.906 250.851 781.147 250.604 782.455 250.604L791.984 250.604ZM791.243 298.411C791.737 298.411 791.984 298.164 791.984 297.67L791.984 260.934C791.984 260.44 791.737 260.193 791.243 260.193L783.196 260.193C782.702 260.193 782.455 260.44 782.455 260.934L782.455 297.67C782.455 298.164 782.702 298.411 783.196 298.411L791.243 298.411ZM827.9 250.604C829.208 250.604 830.449 250.851 831.624 251.345C832.799 251.838 833.82 252.526 834.687 253.407C835.568 254.274 836.255 255.295 836.749 256.47C837.243 257.644 837.49 258.885 837.49 260.193L837.49 298.411C837.49 299.719 837.243 300.96 836.749 302.134C836.255 303.309 835.568 304.336 834.687 305.217C833.82 306.085 832.799 306.766 831.624 307.259C830.449 307.753 829.208 308 827.9 308L818.371 308C817.063 308 815.822 307.753 814.647 307.259C813.473 306.766 812.445 306.085 811.564 305.217C810.697 304.336 810.016 303.309 809.522 302.134C809.029 300.96 808.782 299.719 808.782 298.411L808.782 260.193C808.782 258.885 809.029 257.644 809.522 256.47C810.016 255.295 810.697 254.274 811.564 253.407C812.445 252.526 813.473 251.838 814.647 251.345C815.822 250.851 817.063 250.604 818.371 250.604L827.9 250.604ZM827.159 298.411C827.653 298.411 827.9 298.164 827.9 297.67L827.9 260.934C827.9 260.44 827.653 260.193 827.159 260.193L819.112 260.193C818.618 260.193 818.371 260.44 818.371 260.934L818.371 297.67C818.371 298.164 818.618 298.411 819.112 298.411L827.159 298.411ZM874.226 284.057L874.226 298.411C874.226 299.719 873.979 300.96 873.485 302.134C872.991 303.309 872.304 304.336 871.423 305.217C870.556 306.085 869.535 306.766 868.36 307.259C867.185 307.753 865.944 308 864.636 308L846.258 308C845.765 308 845.518 307.753 845.518 307.259L845.518 251.345C845.518 250.851 845.765 250.604 846.258 250.604L870.862 250.604C871.129 250.604 871.33 250.697 871.463 250.884C871.61 251.071 871.656 251.305 871.603 251.585L869.621 259.613C869.461 260 869.187 260.193 868.8 260.193L855.107 260.193L855.107 274.547L864.636 274.547C865.944 274.547 867.185 274.794 868.36 275.288C869.535 275.782 870.542 276.456 871.383 277.31C872.237 278.151 872.924 279.158 873.445 280.333C873.966 281.508 874.226 282.749 874.226 284.057ZM864.636 284.877C864.636 284.33 864.389 284.057 863.896 284.057L855.107 284.057L855.107 298.411L863.896 298.411C864.389 298.411 864.636 298.164 864.636 297.67L864.636 284.877ZM934.905 298.411C935.559 298.411 936.12 298.644 936.587 299.111C937.054 299.565 937.287 300.126 937.287 300.793L937.287 314.566C937.287 314.993 937.094 315.24 936.707 315.307L928.499 317.589C928.005 317.589 927.758 317.316 927.758 316.769L927.758 308.741C927.758 308.247 927.491 308 926.957 308L883.074 308C882.527 308 882.254 307.753 882.254 307.259L882.254 251.345C882.254 250.851 882.527 250.604 883.074 250.604L891.122 250.604C891.603 250.604 891.843 250.851 891.843 251.345L891.843 297.67C891.843 298.164 892.09 298.411 892.584 298.411L901.452 298.411L901.452 251.345C901.452 250.851 901.699 250.604 902.193 250.604L910.221 250.604C910.715 250.604 910.962 250.851 910.962 251.345L910.962 298.411L920.551 298.411L920.551 251.345C920.551 250.851 920.798 250.604 921.292 250.604L929.32 250.604C929.867 250.604 930.14 250.851 930.14 251.345L930.14 297.67C930.14 298.164 930.387 298.411 930.881 298.411L934.905 298.411ZM970.574 299.231L970.574 307.259C970.574 307.753 970.3 308 969.753 308L942.606 308C942.113 308 941.866 307.753 941.866 307.259L941.866 251.345C941.866 250.851 942.113 250.604 942.606 250.604L969.753 250.604C970.3 250.604 970.574 250.851 970.574 251.345L968.271 259.613C968.164 260 967.918 260.193 967.531 260.193L951.375 260.193L951.375 274.547L962.626 274.547C963.107 274.547 963.347 274.794 963.347 275.288L963.347 283.316C963.347 283.81 963.107 284.057 962.626 284.057L951.375 284.057L951.375 298.411L969.753 298.411C970.3 298.411 970.574 298.684 970.574 299.231ZM994.852 264.377L994.852 260.934C994.852 260.44 994.605 260.193 994.112 260.193L986.064 260.193C985.57 260.193 985.323 260.44 985.323 260.934L985.323 297.67C985.323 298.164 985.57 298.411 986.064 298.411L994.112 298.411C994.605 298.411 994.852 298.164 994.852 297.67L994.852 292.004C994.852 291.511 995.126 291.264 995.673 291.264L1003.7 291.264C1004.19 291.264 1004.44 291.511 1004.44 292.004L1004.44 298.411C1004.44 299.719 1004.19 300.96 1003.7 302.134C1003.21 303.309 1002.52 304.336 1001.64 305.217C1000.77 306.085 999.752 306.766 998.576 307.259C997.401 307.753 996.16 308 994.852 308L985.323 308C984.015 308 982.774 307.753 981.599 307.259C980.425 306.766 979.397 306.085 978.516 305.217C977.649 304.336 976.968 303.309 976.474 302.134C975.981 300.96 975.734 299.719 975.734 298.411L975.734 260.193C975.734 258.885 975.981 257.644 976.474 256.47C976.968 255.295 977.649 254.274 978.516 253.407C979.397 252.526 980.425 251.838 981.599 251.345C982.774 250.851 984.015 250.604 985.323 250.604L994.852 250.604C996.16 250.604 997.401 250.851 998.576 251.345C999.752 251.838 1000.77 252.526 1001.64 253.407C1002.52 254.274 1003.21 255.295 1003.7 256.47C1004.19 257.644 1004.44 258.885 1004.44 260.193L1004.44 266.6C1004.44 267.08 1004.19 267.32 1003.7 267.32L995.413 265.118C995.039 265.011 994.852 264.764 994.852 264.377ZM1036.67 251.345L1034.44 259.613C1034.33 260 1034.09 260.193 1033.7 260.193L1027.08 260.193L1027.08 307.259C1027.08 307.753 1026.83 308 1026.34 308L1018.29 308C1017.81 308 1017.57 307.753 1017.57 307.259L1017.57 260.193L1008.7 260.193C1008.21 260.193 1007.96 259.92 1007.96 259.373L1007.96 251.345C1007.96 250.851 1008.21 250.604 1008.7 250.604L1035.93 250.604C1036.42 250.604 1036.67 250.851 1036.67 251.345ZM1070.28 281.674C1070.51 282.328 1070.62 283.122 1070.62 284.057L1070.62 298.411C1070.62 299.719 1070.37 300.96 1069.87 302.134C1069.38 303.309 1068.69 304.336 1067.81 305.217C1066.94 306.085 1065.92 306.766 1064.75 307.259C1063.58 307.753 1062.34 308 1061.03 308L1042.65 308C1042.16 308 1041.91 307.753 1041.91 307.259L1041.91 251.345C1041.91 250.851 1042.16 250.604 1042.65 250.604L1058.64 250.604C1059.57 250.604 1060.36 250.711 1061.03 250.924C1063.1 251.471 1064.81 252.579 1066.17 254.248C1067.54 255.916 1068.23 257.898 1068.23 260.193L1068.23 269.703C1068.23 272.052 1067.49 274.1 1066.01 275.849C1067.05 276.45 1067.95 277.284 1068.71 278.351C1069.48 279.419 1070.01 280.527 1070.28 281.674ZM1051.5 260.193L1051.5 274.547L1057.9 274.547C1058.39 274.547 1058.64 274.274 1058.64 273.727L1058.64 260.934C1058.64 260.44 1058.39 260.193 1057.9 260.193L1051.5 260.193ZM1051.5 298.411L1060.29 298.411C1060.78 298.411 1061.03 298.164 1061.03 297.67L1061.03 284.877C1061.03 284.33 1060.78 284.057 1060.29 284.057L1051.5 284.057L1051.5 298.411ZM1095.86 308C1095.75 308 1095.65 307.973 1095.54 307.92C1095.31 307.813 1095.2 307.62 1095.2 307.339L1095.2 298.571L1086.44 298.571L1085.77 307.339C1085.77 307.673 1085.74 307.867 1085.69 307.92C1085.64 307.973 1085.42 308 1085.03 308L1077.01 308C1076.85 308 1076.74 307.973 1076.69 307.92C1076.41 307.813 1076.27 307.62 1076.27 307.339L1078.97 251.985C1078.97 251.665 1079 251.358 1079.05 251.064C1079.12 250.757 1079.31 250.604 1079.63 250.604L1101.93 250.604C1102.26 250.604 1102.46 250.757 1102.51 251.064C1102.56 251.358 1102.59 251.665 1102.59 251.985L1105.29 307.339C1105.29 307.673 1105.15 307.867 1104.87 307.92C1104.6 307.973 1104.31 308 1103.99 308L1095.86 308ZM1093.16 260.774L1087.76 260.774L1086.44 289.142L1094.56 289.142L1093.16 260.774ZM1112.85 251.345C1112.85 250.851 1113.09 250.604 1113.57 250.604L1121.62 250.604C1122.17 250.604 1122.44 250.851 1122.44 251.345L1122.44 292.905C1122.44 293.399 1122.17 293.646 1121.62 293.646L1113.57 293.646C1113.09 293.646 1112.85 293.399 1112.85 292.905L1112.85 251.345ZM1121.62 298.411C1122.17 298.411 1122.44 298.684 1122.44 299.231L1122.44 307.259C1122.44 307.753 1122.17 308 1121.62 308L1113.57 308C1113.09 308 1112.85 307.753 1112.85 307.259L1112.85 299.231C1112.85 298.684 1113.09 298.411 1113.57 298.411L1121.62 298.411Z" fill="rgb(255,255,255)" fill-rule="nonzero" />
			</g>
		</g>
	</g>
</svg>
